<svg xmlns="http://www.w3.org/2000/svg" width="35.236" height="29.363" viewBox="0 0 35.236 29.363">
  <g id="Grupo_490" data-name="Grupo 490" transform="translate(0)">
    <path id="Trazado_64" data-name="Trazado 64" d="M27.961,27.246H4.007a1.541,1.541,0,0,1-1.541-1.541V7.05H5.548V24.165H26.42V7.05H29.5V25.706A1.541,1.541,0,0,1,27.961,27.246Z" transform="translate(1.817 2.117)" fill="#707070"/>
    <path id="Trazado_65" data-name="Trazado 65" d="M15.31,23.765H7.974a1.541,1.541,0,0,1-1.541-1.541V11.893a1.54,1.54,0,0,1,1.541-1.541H15.31a1.54,1.54,0,0,1,1.541,1.541V22.224A1.541,1.541,0,0,1,15.31,23.765Zm-5.8-3.082h4.255v-7.25H9.515Z" transform="translate(5.999 5.598)" fill="#707070"/>
    <path id="Trazado_66" data-name="Trazado 66" d="M1.923,16.531a1.541,1.541,0,0,1-.861-2.819L17.22,2.851a1.539,1.539,0,0,1,1.717,0l16,10.732a1.542,1.542,0,0,1-1.717,2.562L18.079,5.984,2.78,16.268A1.516,1.516,0,0,1,1.923,16.531Z" transform="translate(-0.381 -2.588)" fill="#707070"/>
  </g>
</svg>