<svg xmlns="http://www.w3.org/2000/svg" width="32.482" height="27.491" viewBox="0 0 32.482 27.491">
  <g id="Grupo_368" data-name="Grupo 368" transform="translate(0)">
    <g id="Grupo_367" data-name="Grupo 367" transform="translate(9.79 9.49)">
      <path id="Trazado_61" data-name="Trazado 61" d="M22.268,18.62v3.439H20.16V18.964c0-.866-.356-1.232-.91-1.232-.611,0-1.054.41-1.054,1.342v2.984H16.088V18.964c0-.866-.344-1.232-.91-1.232-.621,0-1.064.41-1.064,1.342v2.984H12.006V16.046h2.008v.633a2.393,2.393,0,0,1,1.8-.732,2.2,2.2,0,0,1,1.942.943,2.6,2.6,0,0,1,2.085-.943C21.236,15.946,22.268,16.756,22.268,18.62Z" transform="translate(-12.006 -13.747)" fill="#707070"/>
      <path id="Trazado_62" data-name="Trazado 62" d="M30.609,16.547v1.015H27.086v-.8l1.693-1.583c.363-.336.414-.544.414-.731,0-.291-.194-.465-.582-.465a.924.924,0,0,0-.808.44l-.95-.531a2.075,2.075,0,0,1,1.874-.943c1.041,0,1.759.537,1.759,1.377a1.807,1.807,0,0,1-.77,1.435l-.853.789Z" transform="translate(-15.97 -12.946)" fill="#707070"/>
    </g>
    <path id="Trazado_63" data-name="Trazado 63" d="M31.016,27.491H1.466A1.466,1.466,0,0,1,0,26.025V1.466A1.466,1.466,0,0,1,1.466,0h29.55a1.466,1.466,0,0,1,1.466,1.466V26.025A1.466,1.466,0,0,1,31.016,27.491ZM2.932,24.559H29.55V2.932H2.932Z" fill="#707070"/>
  </g>
</svg>