<svg xmlns="http://www.w3.org/2000/svg" width="35.5" height="31.117" viewBox="0 0 35.5 31.117">
  <g id="Grupo_377" data-name="Grupo 377" transform="translate(0)">
    <path id="Trazado_70" data-name="Trazado 70" d="M35.1,13.018l-2.763-11.6A1.43,1.43,0,0,0,30.931.25H4.636a1.422,1.422,0,0,0-1.391,1.1l-3.583,12.8a1.428,1.428,0,0,0,.923,1.675,5.132,5.132,0,0,0,2.971.075V27.42a3.952,3.952,0,0,0,3.949,3.947H28.214a3.952,3.952,0,0,0,3.948-3.947v-11.7a7.751,7.751,0,0,0,2.494-1.378A1.421,1.421,0,0,0,35.1,13.018ZM6.4,15.332a9.884,9.884,0,0,0,4.147.911,9.357,9.357,0,0,0,4.567-1.158,7.473,7.473,0,0,0,4.321,1.158,8.789,8.789,0,0,0,4.727-1.23,10.285,10.285,0,0,0,4.865,1.23c.1,0,.195,0,.289-.006V27.42a1.1,1.1,0,0,1-1.1,1.1H7.505a1.1,1.1,0,0,1-1.1-1.1ZM24.081,11.85a1.431,1.431,0,0,0-1.034.442,5.415,5.415,0,0,1-3.611,1.091c-2.174,0-2.921-.807-2.983-.877a1.438,1.438,0,0,0-2.144-.3,6.082,6.082,0,0,1-3.761,1.179,6.778,6.778,0,0,1-3.909-1.2,1.439,1.439,0,0,0-1.8-.026,5.992,5.992,0,0,1-1.985.965L5.762,3.11h23.99l2.356,9.519a6.461,6.461,0,0,1-3.08.753,7.319,7.319,0,0,1-4.068-1.23A1.415,1.415,0,0,0,24.081,11.85Z" transform="translate(0.375 -0.25)" fill="#707070"/>
    <rect id="Rectángulo_126" data-name="Rectángulo 126" width="7.739" height="10.31" transform="translate(10.091 19.606)" fill="#707070"/>
  </g>
</svg>