<svg xmlns="http://www.w3.org/2000/svg" width="47.722" height="29.24" viewBox="0 0 47.722 29.24">
  <g id="Grupo_378" data-name="Grupo 378" transform="translate(0)">
    <path id="Trazado_71" data-name="Trazado 71" d="M51.1,27.874H48.366V2.732H38.108V27.874H35.376V1.366A1.366,1.366,0,0,1,36.742,0h12.99A1.366,1.366,0,0,1,51.1,1.366Z" transform="translate(-18.568)" fill="#707070"/>
    <path id="Trazado_72" data-name="Trazado 72" d="M23.5,34.328H20.765V17.089H10.507V34.328H7.775V15.723a1.366,1.366,0,0,1,1.366-1.366h12.99A1.366,1.366,0,0,1,23.5,15.723Z" transform="translate(-4.12 -7.607)" fill="#707070"/>
    <path id="Trazado_73" data-name="Trazado 73" d="M79.832,42.931H77.1V31.15H66.889V28.418H78.465a1.366,1.366,0,0,1,1.366,1.366Z" transform="translate(-35.106 -15.057)" fill="#707070"/>
    <path id="Trazado_74" data-name="Trazado 74" d="M46.346,59.113H1.376a1.366,1.366,0,1,1,0-2.732h44.97a1.366,1.366,0,1,1,0,2.732Z" transform="translate(0 -29.874)" fill="#707070"/>
    <rect id="Rectángulo_127" data-name="Rectángulo 127" width="2.623" height="2.563" transform="translate(21.011 6.067)" fill="#707070"/>
    <rect id="Rectángulo_128" data-name="Rectángulo 128" width="2.623" height="2.563" transform="translate(21.011 11.498)" fill="#707070"/>
    <rect id="Rectángulo_129" data-name="Rectángulo 129" width="2.623" height="2.563" transform="translate(25.516 6.067)" fill="#707070"/>
    <rect id="Rectángulo_130" data-name="Rectángulo 130" width="2.623" height="2.563" transform="translate(25.516 11.498)" fill="#707070"/>
    <rect id="Rectángulo_131" data-name="Rectángulo 131" width="2.623" height="2.563" transform="translate(21.011 16.758)" fill="#707070"/>
    <rect id="Rectángulo_132" data-name="Rectángulo 132" width="2.623" height="2.563" transform="translate(25.516 16.758)" fill="#707070"/>
    <rect id="Rectángulo_133" data-name="Rectángulo 133" width="2.623" height="2.563" transform="translate(8.029 11.888)" fill="#707070"/>
    <rect id="Rectángulo_134" data-name="Rectángulo 134" width="2.623" height="2.563" transform="translate(8.029 17.319)" fill="#707070"/>
    <rect id="Rectángulo_135" data-name="Rectángulo 135" width="2.623" height="2.563" transform="translate(12.534 11.888)" fill="#707070"/>
    <rect id="Rectángulo_136" data-name="Rectángulo 136" width="2.623" height="2.563" transform="translate(12.534 17.319)" fill="#707070"/>
    <rect id="Rectángulo_137" data-name="Rectángulo 137" width="3.898" height="4.952" transform="translate(9.641 21.845)" fill="#707070"/>
    <rect id="Rectángulo_138" data-name="Rectángulo 138" width="3.898" height="4.952" transform="translate(22.718 21.845)" fill="#707070"/>
    <rect id="Rectángulo_139" data-name="Rectángulo 139" width="3.898" height="4.952" transform="translate(35.461 21.845)" fill="#707070"/>
    <rect id="Rectángulo_140" data-name="Rectángulo 140" width="2.623" height="2.563" transform="translate(33.864 18.112)" fill="#707070"/>
    <rect id="Rectángulo_141" data-name="Rectángulo 141" width="2.623" height="2.563" transform="translate(38.419 18.112)" fill="#707070"/>
  </g>
</svg>