<svg width="40" height="52" viewBox="0 0 40 52" fill="none" xmlns="http://www.w3.org/2000/svg">
<path d="M19.9993 39.0832C21.2812 39.0832 22.5106 38.5739 23.417 37.6675C24.3235 36.7611 24.8327 35.5317 24.8327 34.2498C24.8327 32.968 24.3235 31.7386 23.417 30.8322C22.5106 29.9257 21.2812 29.4165 19.9993 29.4165C18.7175 29.4165 17.4881 29.9257 16.5817 30.8322C15.6752 31.7386 15.166 32.968 15.166 34.2498C15.166 35.5317 15.6752 36.7611 16.5817 37.6675C17.4881 38.5739 18.7175 39.0832 19.9993 39.0832ZM34.4993 17.3332C35.7812 17.3332 37.0106 17.8424 37.917 18.7488C38.8235 19.6552 39.3327 20.8846 39.3327 22.1665V46.3332C39.3327 47.6151 38.8235 48.8444 37.917 49.7509C37.0106 50.6573 35.7812 51.1665 34.4993 51.1665H5.49935C4.21747 51.1665 2.98809 50.6573 2.08167 49.7509C1.17524 48.8444 0.666016 47.6151 0.666016 46.3332V22.1665C0.666016 20.8846 1.17524 19.6552 2.08167 18.7488C2.98809 17.8424 4.21747 17.3332 5.49935 17.3332H7.91602V12.4998C7.91602 9.29514 9.18908 6.2217 11.4551 3.95563C13.7212 1.68957 16.7946 0.416504 19.9993 0.416504C21.5862 0.416504 23.1574 0.729049 24.6234 1.33629C26.0895 1.94354 27.4215 2.83359 28.5436 3.95563C29.6656 5.07767 30.5556 6.40973 31.1629 7.87575C31.7701 9.34176 32.0827 10.913 32.0827 12.4998V17.3332H34.4993ZM19.9993 5.24984C18.0765 5.24984 16.2325 6.01367 14.8728 7.37331C13.5132 8.73295 12.7493 10.577 12.7493 12.4998V17.3332H27.2493V12.4998C27.2493 10.577 26.4855 8.73295 25.1259 7.37331C23.7662 6.01367 21.9222 5.24984 19.9993 5.24984Z" fill="#0b3475"/>
</svg>
